<svg xmlns="http://www.w3.org/2000/svg" width="54" height="73" viewBox="0 0 54 73"><path fill="#f6f6f6" d="M29.71 53.98c-.5 5.56-1.54 10.45-3.41 14.72-.63 1.41-1.76 2.76-2.28 4.3h-.23v-1.13c.43-.67.22-1.58.45-2.5 1.13-4.35 1.22-10.16-.68-13.8-3.24-6.23-9.73-4.13-16.18-6.8-2.53-1.04-4.39-3.19-5.7-5.43L.31 39.49c-.71-2.7-.06-6.2.69-8.15 3.1-8.13 10.87-11.71 20.28-7.25v-.68c-.8-1.1-.54-2.73-.91-4.3C19.38 14.9 18.62 1.05 23.33 1c1.28.93 3.73.88 3.88 2.94-.38.4-.4.57-.46 1.36h.23v-.22c.98-1.03 1.25-3.38 2.96-3.63 1.37 1.22 3.69 1.47 4.1 3.63a17.49 17.49 0 0 0-2.73 5.88h.46c1.42-1.88 7.3-7.25 10.02-6.8.8 1.3 1.64 2.58 2.05 4.31-1.43.51-2.1 1.9-3.19 2.72-4 3-7.23 7.37-9.8 11.77h.69c1.57-1.22 7.97-1.8 10.7-1.13 7.23 1.8 9.26 4.27 10.95 11.55.23 1 .54 3.39.23 4.75-2.19 9.44-6.8 14.21-16.41 16.3-2.57.56-5.14-.33-7.3-.45z"/></svg>